<?xml version="1.0" standalone="no"?>
<svg xmlns:xlink="http://www.w3.org/1999/xlink" id="wave" style="transform:rotate(0deg); transition: 0.3s" viewBox="0 0 1440 490" version="1.1" xmlns="http://www.w3.org/2000/svg"><defs><linearGradient id="sw-gradient-0" x1="0" x2="0" y1="1" y2="0"><stop stop-color="rgba(236, 0, 140, 1)" offset="0%"/><stop stop-color="rgba(252, 103, 103, 1)" offset="100%"/></linearGradient></defs><path style="transform:translate(0, 0px); opacity:1" fill="url(#sw-gradient-0)" d="M0,147L80,130.7C160,114,320,82,480,130.7C640,180,800,310,960,318.5C1120,327,1280,212,1440,187.8C1600,163,1760,229,1920,253.2C2080,278,2240,261,2400,212.3C2560,163,2720,82,2880,73.5C3040,65,3200,131,3360,130.7C3520,131,3680,65,3840,89.8C4000,114,4160,229,4320,285.8C4480,343,4640,343,4800,343C4960,343,5120,343,5280,343C5440,343,5600,343,5760,302.2C5920,261,6080,180,6240,130.7C6400,82,6560,65,6720,49C6880,33,7040,16,7200,57.2C7360,98,7520,196,7680,220.5C7840,245,8000,196,8160,204.2C8320,212,8480,278,8640,269.5C8800,261,8960,180,9120,155.2C9280,131,9440,163,9600,163.3C9760,163,9920,131,10080,98C10240,65,10400,33,10560,65.3C10720,98,10880,196,11040,245C11200,294,11360,294,11440,294L11520,294L11520,490L11440,490C11360,490,11200,490,11040,490C10880,490,10720,490,10560,490C10400,490,10240,490,10080,490C9920,490,9760,490,9600,490C9440,490,9280,490,9120,490C8960,490,8800,490,8640,490C8480,490,8320,490,8160,490C8000,490,7840,490,7680,490C7520,490,7360,490,7200,490C7040,490,6880,490,6720,490C6560,490,6400,490,6240,490C6080,490,5920,490,5760,490C5600,490,5440,490,5280,490C5120,490,4960,490,4800,490C4640,490,4480,490,4320,490C4160,490,4000,490,3840,490C3680,490,3520,490,3360,490C3200,490,3040,490,2880,490C2720,490,2560,490,2400,490C2240,490,2080,490,1920,490C1760,490,1600,490,1440,490C1280,490,1120,490,960,490C800,490,640,490,480,490C320,490,160,490,80,490L0,490Z"/></svg>